<!--?xml version="1.0" encoding="utf-8"?-->
<!-- Svg Vector Icons : http://www.onlinewebfonts.com/icon -->

<svg version="1.1" xmlns="http://www.w3.org/2000/svg" xmlns:xlink="http://www.w3.org/1999/xlink" x="0px" y="0px" viewBox="0 0 256 256" enable-background="new 0 0 256 256" xml:space="preserve">
<metadata> Svg Vector Icons : http://www.onlinewebfonts.com/icon </metadata>
<g><g><g><path fill="#ffffff" data-title="Layer 0" xs="0" d="M13.4,33c-0.5,0.2-1.4,0.9-2.1,1.6c-1.1,1.2-1.2,1.4-1.3,9.3c-0.1,6.9,0,8.2,0.6,9.2c1.6,2.4,2.3,2.4,23.9,2.4h20.1l0.5,1.9c0.4,1.6,21.6,91.6,26.8,113.5l1.4,6l-1.6,2.2c-3.4,4.6-5.3,10.4-5.3,16.3c0,12.2,7.7,22.9,19.4,26.8c3.9,1.3,10,1.1,14.1-0.4c7.5-2.7,14.8-9.6,17.6-16.8l0.9-2.3l27.8-0.1l27.8-0.1l0.9,2.6c1.2,3.6,4.8,8.9,7.9,11.6c5,4.5,10.4,6.5,17,6.5c7.3,0,12.8-2.4,18.3-7.8c5.6-5.6,8-11.6,7.9-19.6c-0.1-12.7-7.2-22.4-18.4-25.4c-3.8-1-10.3-1-13.7,0c-4.2,1.2-8,3.4-10.9,6.1l-2.6,2.5h-34.3h-34.3l-1.3-1.9c-2.9-4.1-8.9-7.4-14.5-8.1c-2.7-0.3-2.8-0.3-3-2c-0.1-0.9-0.3-2-0.3-2.4c0-0.8,3.2-0.8,54.3-0.9c54-0.1,54.3-0.1,56.1-1.1c1-0.5,2.3-1.6,2.9-2.4C217.2,158.4,246,72,246,70c0-2-1.5-4.8-3.2-6.1c-3.4-2.4,0.2-2.3-85.8-2.3c-44.1,0-80.1-0.1-80.1-0.2c0-0.1-1-4.9-2.3-10.7c-2.4-11.2-3.2-13.6-5.7-15.6c-3-2.6-2.4-2.5-29.5-2.5C25.6,32.6,13.9,32.8,13.4,33z M107.1,187.9c3.9,2.2,5.7,6.3,4.7,10.7c-0.9,4.1-5.3,7.7-9.6,7.7c-4.1,0-8.7-3.6-9.6-7.6C90.7,190.2,99.5,183.6,107.1,187.9z M214.5,187.7c5.9,3,7.2,10.2,2.8,15.2c-4.5,5.2-12.7,4.1-15.8-2.1c-2-4.1-1.4-8.1,1.8-11.2C206.5,186.4,210.5,185.7,214.5,187.7z"/></g></g></g>
</svg>