<?xml version="1.0" encoding="UTF-8"?>
<svg version="1.1" xmlns="http://www.w3.org/2000/svg" width="50" height="50">
<path d="M0 0 C3.31414849 1.91589913 4.69046311 3.74706054 6.17578125 7.2578125 C6.4649508 10.01988023 6.36829415 12.46637549 6.17578125 15.2578125 C5.53640625 15.3815625 4.89703125 15.5053125 4.23828125 15.6328125 C3.55765625 15.8390625 2.87703125 16.0453125 2.17578125 16.2578125 C1.84578125 16.9178125 1.51578125 17.5778125 1.17578125 18.2578125 C1.17578125 17.2678125 1.17578125 16.2778125 1.17578125 15.2578125 C-0.81963743 14.57755613 -2.82039866 13.91290753 -4.82421875 13.2578125 C-5.79488281 12.93296875 -5.79488281 12.93296875 -6.78515625 12.6015625 C-9.27858543 12.18121429 -10.41509677 12.66332968 -12.69921875 13.6953125 C-16.21146757 15.1423064 -18.98761981 15.54555742 -22.82421875 15.2578125 C-22.82421875 17.5678125 -22.82421875 19.8778125 -22.82421875 22.2578125 C-23.81421875 22.2578125 -24.80421875 22.2578125 -25.82421875 22.2578125 C-25.39109375 22.62777344 -24.95796875 22.99773438 -24.51171875 23.37890625 C-21.61223031 26.60727186 -20.14246023 30.63659057 -18.32421875 34.54296875 C-16.96373002 37.49704271 -16.96373002 37.49704271 -13.82421875 39.2578125 C-10.69900042 39.42480482 -10.69900042 39.42480482 -7.82421875 39.2578125 C-9.80421875 38.9278125 -11.78421875 38.5978125 -13.82421875 38.2578125 C-13.82421875 36.2778125 -13.82421875 34.2978125 -13.82421875 32.2578125 C-11.18421875 32.2578125 -8.54421875 32.2578125 -5.82421875 32.2578125 C-5.82421875 32.9178125 -5.82421875 33.5778125 -5.82421875 34.2578125 C-4.50421875 34.2578125 -3.18421875 34.2578125 -1.82421875 34.2578125 C-1.16421875 31.9478125 -0.50421875 29.6378125 0.17578125 27.2578125 C1.16578125 27.2578125 2.15578125 27.2578125 3.17578125 27.2578125 C3.17578125 23.9578125 3.17578125 20.6578125 3.17578125 17.2578125 C5.15578125 17.2578125 7.13578125 17.2578125 9.17578125 17.2578125 C9.17578125 20.5578125 9.17578125 23.8578125 9.17578125 27.2578125 C8.18578125 27.2578125 7.19578125 27.2578125 6.17578125 27.2578125 C6.17578125 28.2890625 6.17578125 29.3203125 6.17578125 30.3828125 C5.81719012 33.02675308 5.38608262 34.04895485 3.46875 35.953125 C1.41467156 37.46986566 -0.67945057 38.87306421 -2.82421875 40.2578125 C-3.48164062 40.79535156 -4.1390625 41.33289062 -4.81640625 41.88671875 C-7.76021473 43.89698485 -10.01635679 43.98394567 -13.515625 43.86328125 C-19.98164791 42.1674546 -23.68587603 34.22699505 -26.87890625 28.82421875 C-27.73038996 27.27162522 -27.73038996 27.27162522 -28.82421875 26.2578125 C-28.97229858 23.19480889 -28.77043699 20.13223355 -28.63671875 17.0703125 C-28.61802734 16.21888672 -28.59933594 15.36746094 -28.58007812 14.49023438 C-28.336633 8.96787381 -27.47326985 5.64764841 -23.82421875 1.2578125 C-16.76988742 -4.94144836 -8.05139175 -3.58117891 0 0 Z M-5.82421875 36.2578125 C-4.82421875 38.2578125 -4.82421875 38.2578125 -4.82421875 38.2578125 Z " fill="#FFFFFF" transform="translate(35.82421875,4.7421875)"/>
</svg>
