<!--?xml version="1.0" encoding="utf-8"?-->
<!-- Svg Vector Icons : http://www.onlinewebfonts.com/icon -->

<svg version="1.1" xmlns="http://www.w3.org/2000/svg" xmlns:xlink="http://www.w3.org/1999/xlink" x="0px" y="0px" viewBox="0 0 256 256" enable-background="new 0 0 256 256" xml:space="preserve">
<metadata> Svg Vector Icons : http://www.onlinewebfonts.com/icon </metadata>
<g><g><g><g><path fill="#ffffff" data-title="Layer 0" xs="0" d="M205.4,233.7H50.6c-2.5,0-4.5-2-4.5-4.5v-84.3l-31.5-0.1c-1.8,0-3.5-1.1-4.2-2.8c-0.7-1.7-0.3-3.6,1-4.9L124.7,23.7c1-1,2.5-1.5,3.9-1.3c1.3,0.2,2.5,1,3.2,2.2L158.2,51v-8.4c0-2.5,2-4.5,4.5-4.5h26.6c2.5,0,4.5,2,4.5,4.5v44l50.9,50.9c1.3,1.3,1.7,3.3,1,4.9c-0.7,1.7-2.4,2.8-4.2,2.8l0,0l-31.5-0.1v84C209.9,231.7,207.9,233.7,205.4,233.7z M55.1,224.6h145.8v-84c0-1.2,0.5-2.4,1.3-3.2c0.8-0.8,2-1.3,3.2-1.3l0,0l25.1,0l-44.4-44.5c-0.8-0.8-1.3-2-1.3-3.2V47.1h-17.5v14.8c0,1.8-1.1,3.5-2.8,4.2c-1.7,0.7-3.6,0.3-4.9-1l-31.7-31.8L25.4,135.7l25.2,0c2.5,0,4.5,2,4.5,4.5V224.6z"/></g></g><g></g><g></g><g></g><g></g><g></g><g></g><g></g><g></g><g></g><g></g><g></g><g></g><g></g><g></g><g></g></g></g>
</svg>